# File created by Blade
# Date/Time:  Thu Jan 22 19:13:14 2015
# Frame Rate: 120.000 fps
#------------------------------------------------------
:FULLY-SPECIFIED
:DEGREES
2750
root 0.429588 33.314083 -4.544404 8.193788 -0.791464 5.915978
RightUpLeg -10.292163 -6.645924 2.179418
RightLeg 12.305818 -0.000000 -0.000000
RightFoot -16.434541 -7.074244 0.974580
RightToeBase 4.598406 -0.000000 -0.000000
LeftUpLeg -42.428935 -4.897045 -2.642910
LeftLeg 75.227958 -0.000000 -0.000000
LeftFoot -13.607092 -2.737436 -24.022632
LeftToeBase -13.549060 -0.000000 0.000000
Spine -1.378283 -0.680819 -5.502073
RightShoulder -17.955228 -11.455151 -25.862778
RightArm 20.840067 30.530467 48.006007
RightForeArm -0.744540 -0.000000 19.779480
RightHand 14.907339 -0.000000 -5.881238
RightHandThumb1 -24.326973 -0.000000 -32.862282
LeftShoulder -23.426838 6.791236 27.503177
LeftArm 11.972307 -35.864235 -42.780910
LeftForeArm 10.198271 -0.000000 7.364896
LeftHand -2.428309 0.000000 9.123955
LeftHandThumb1 -26.253704 0.000000 33.147579
Head -18.639765 0.874921 -3.741282
2751
root 0.416794 33.329008 -4.510724 8.053707 -1.134372 5.895382
RightUpLeg -9.911306 -6.627931 2.143513
RightLeg 11.910128 -0.000000 -0.000000
RightFoot -16.450901 -6.612456 1.482089
RightToeBase 4.696123 -0.000000 -0.000000
LeftUpLeg -40.775747 -4.830976 -2.892492
LeftLeg 72.607448 -0.000000 -0.000000
LeftFoot -13.998268 -2.409770 -24.510602
LeftToeBase -12.664231 -0.000000 0.000000
Spine -1.481434 -0.466383 -5.365559
RightShoulder -17.847588 -11.387775 -25.904196
RightArm 20.867918 30.024524 47.710092
RightForeArm -1.314081 0.000000 19.522152
RightHand 14.854067 -0.000000 -5.805500
RightHandThumb1 -24.326973 -0.000000 -32.862282
LeftShoulder -23.526921 6.900422 27.490915
LeftArm 12.085143 -35.458238 -42.866517
LeftForeArm 10.476331 0.000000 6.841832
LeftHand -2.353003 0.000000 9.012177
LeftHandThumb1 -26.253704 0.000000 33.147579
Head -18.339902 1.018381 -3.904287
2752
root 0.402016 33.342650 -4.471514 7.883920 -1.503755 5.869944
RightUpLeg -9.472116 -6.489104 2.096139
RightLeg 11.472861 -0.000000 -0.000000
RightFoot -16.503867 -6.234325 2.136744
RightToeBase 4.210053 -0.000000 -0.000000
LeftUpLeg -39.035912 -4.702719 -3.139916
LeftLeg 69.896006 -0.000000 -0.000000
LeftFoot -14.365104 -2.057825 -24.893819
LeftToeBase -12.633395 -0.000000 0.000000
Spine -1.565723 -0.201396 -5.251844
RightShoulder -17.845006 -11.437343 -25.870016
RightArm 21.077163 29.552446 47.468107
RightForeArm -1.857168 0.000000 19.215663
RightHand 14.920744 -0.000000 -5.686838
RightHandThumb1 -24.326973 -0.000000 -32.862282
LeftShoulder -23.618230 7.050516 27.477015
LeftArm 12.245892 -35.071999 -42.968191
LeftForeArm 10.835070 -0.000000 6.341315
LeftHand -2.343137 -0.000000 8.764038
LeftHandThumb1 -26.253704 0.000000 33.147579
Head -18.042816 1.085711 -4.003859
2753
root 0.387829 33.355438 -4.432585 7.753603 -1.897423 5.833163
RightUpLeg -9.088629 -6.425530 2.064426
RightLeg 11.073108 -0.000000 -0.000000
RightFoot -16.575937 -5.756093 2.868614
RightToeBase 3.982596 -0.000000 -0.000000
LeftUpLeg -37.306673 -4.600213 -3.333546
LeftLeg 67.104182 -0.000000 -0.000000
LeftFoot -14.701138 -1.854654 -25.301564
LeftToeBase -12.459702 -0.000000 0.000000
Spine -1.703553 0.085980 -5.124105
RightShoulder -17.784843 -11.457100 -25.860242
RightArm 21.113203 29.053242 47.134127
RightForeArm -2.260435 -0.000000 19.009332
RightHand 14.914350 -0.000000 -5.660772
RightHandThumb1 -24.326973 -0.000000 -32.862282
LeftShoulder -23.681446 7.189598 27.449122
LeftArm 12.363558 -34.626971 -42.985633
LeftForeArm 11.097312 -0.000000 5.805606
LeftHand -2.229694 -0.000000 8.501189
LeftHandThumb1 -26.253704 0.000000 33.147579
Head -17.699318 1.207353 -4.080103
